<?xml version="1.0" encoding="iso-8859-1"?>
<!-- Generator: Adobe Illustrator 19.0.0, SVG Export Plug-In . SVG Version: 6.00 Build 0)  -->
<svg version="1.1" id="Layer_1" xmlns="http://www.w3.org/2000/svg" xmlns:xlink="http://www.w3.org/1999/xlink" x="0px" y="0px"
	 viewBox="0 0 392.663 392.663" style="enable-background:new 0 0 392.663 392.663;" xml:space="preserve">
<path style="fill:#56ACE0;" d="M360.986,21.818H191.677c-5.301,0-9.632,4.331-9.632,9.632v128.905c0,5.301,4.331,9.632,9.632,9.632
	h19.265c6.012,0,10.925,4.848,10.925,10.925v20.816l33.939-28.962c2.004-1.681,4.461-2.651,7.111-2.651h98.198
	c5.301,0,9.632-4.331,9.632-9.632V31.58C370.747,26.149,366.416,21.818,360.986,21.818z"/>
<path style="fill:#FFFFFF;" d="M276.299,72.695c-12.8,0-23.337,10.408-23.337,23.337c0,12.8,10.408,23.337,23.337,23.337
	s23.337-10.408,23.337-23.337S289.228,72.695,276.299,72.695z"/>
<g>
	<path style="fill:#194F82;" d="M360.986,0.032H191.677c-17.39,0-31.547,14.158-31.547,31.547v128.905
		c0,17.39,14.093,31.547,31.547,31.547h8.339v33.358c0,9.244,10.925,14.352,18.036,8.275l48.808-41.697h94.255
		c17.39,0,31.547-14.158,31.547-31.547V31.58C392.533,14.19,378.376,0.032,360.986,0.032z M370.747,160.42
		c0,5.301-4.331,9.632-9.632,9.632h-98.263c-2.651,0-5.107,0.905-7.111,2.651l-33.875,28.962v-20.622
		c0-6.012-4.848-10.925-10.925-10.925h-19.265c-5.301,0-9.632-4.331-9.632-9.632V31.58c0-5.301,4.331-9.632,9.632-9.632h169.374
		c5.301,0,9.632,4.331,9.632,9.632v128.84H370.747z"/>
	<path style="fill:#194F82;" d="M326.465,85.107h-6.335c-1.099-4.396-2.844-8.469-5.107-12.283l4.461-4.461
		c4.267-4.267,4.267-11.119,0-15.451c-4.267-4.267-11.119-4.267-15.451,0l-4.461,4.461c-3.814-2.327-7.887-4.008-12.283-5.107
		v-6.335c0-6.012-4.848-10.925-10.925-10.925c-6.012,0-10.925,4.848-10.925,10.925v6.335c-4.396,1.099-8.469,2.844-12.283,5.107
		l-4.461-4.461c-4.267-4.267-11.119-4.267-15.451,0c-4.267,4.267-4.267,11.119,0,15.451l4.461,4.461
		c-2.327,3.814-4.008,7.887-5.107,12.283h-6.335c-6.012,0-10.925,4.848-10.925,10.925c0,6.012,4.848,10.925,10.925,10.925h6.335
		c1.099,4.396,2.844,8.469,5.107,12.283l-4.461,4.461c-4.267,4.267-4.267,11.119,0,15.451c4.267,4.267,11.119,4.267,15.451,0
		l4.461-4.461c3.814,2.327,7.887,4.008,12.283,5.107v6.335c0,6.012,4.848,10.925,10.925,10.925c6.077,0,10.925-4.848,10.925-10.925
		v-6.335c4.396-1.099,8.469-2.844,12.283-5.107l4.461,4.461c4.267,4.267,11.119,4.267,15.451,0c4.267-4.267,4.267-11.119,0-15.451
		l-4.461-4.461c2.327-3.814,4.008-7.887,5.107-12.283h6.335c6.012,0,10.925-4.848,10.925-10.925S332.412,85.107,326.465,85.107z
		 M276.299,119.305c-12.8,0-23.337-10.408-23.337-23.337c0-12.8,10.408-23.337,23.337-23.337s23.337,10.408,23.337,23.337
		C299.636,108.832,289.228,119.305,276.299,119.305z"/>
</g>
<path style="fill:#FFFFFF;" d="M76.024,213.042c0,17.067,13.834,30.901,30.901,30.901s30.901-13.834,30.901-30.901
	s-13.834-30.901-30.901-30.901S76.024,196.04,76.024,213.042z"/>
<path style="fill:#FFC10D;" d="M142.416,304.323l-26.44,39.305c-4.331,6.4-13.77,6.4-18.101,0l-26.376-39.305
	c-26.764,12.218-45.253,37.495-49.002,66.457h168.921C187.669,341.818,169.115,316.606,142.416,304.323z"/>
<g>
	<path style="fill:#194F82;" d="M106.925,265.859c29.026,0,52.687-23.661,52.687-52.687s-23.661-52.687-52.687-52.687
		s-52.687,23.661-52.687,52.687S77.899,265.859,106.925,265.859z M106.925,182.141c17.067,0,30.901,13.899,30.901,30.901
		c0,17.067-13.834,30.901-30.901,30.901s-30.901-13.834-30.901-30.901S89.859,182.141,106.925,182.141z"/>
	<path style="fill:#194F82;" d="M141.899,280.598c-4.719-1.616-9.891,0.129-12.606,4.267l-22.238,33.164l-22.303-33.164
		c-2.78-4.073-7.952-5.883-12.606-4.267C28.962,295.531,0,336.194,0,381.705c0,6.012,4.848,10.925,10.925,10.925h192.129
		c6.012,0,10.925-4.848,10.925-10.925C213.915,336.194,184.954,295.531,141.899,280.598z M22.497,370.78
		c3.814-28.962,22.238-54.174,49.002-66.457l26.44,39.305c4.331,6.4,13.77,6.4,18.101,0l26.44-39.305
		c26.764,12.218,45.188,37.495,49.002,66.457H22.497z"/>
</g>
<g>
</g>
<g>
</g>
<g>
</g>
<g>
</g>
<g>
</g>
<g>
</g>
<g>
</g>
<g>
</g>
<g>
</g>
<g>
</g>
<g>
</g>
<g>
</g>
<g>
</g>
<g>
</g>
<g>
</g>
</svg>
