<?xml version="1.0" encoding="iso-8859-1"?>
<!-- Generator: Adobe Illustrator 19.0.0, SVG Export Plug-In . SVG Version: 6.00 Build 0)  -->
<svg version="1.1" id="Layer_1" xmlns="http://www.w3.org/2000/svg" xmlns:xlink="http://www.w3.org/1999/xlink" x="0px" y="0px"
	 viewBox="0 0 392.598 392.598" style="enable-background:new 0 0 392.598 392.598;" xml:space="preserve">
<g>
	<path style="fill:#FFC10D;" d="M185.248,312.566l-43.572,46.545c-4.719,4.784-11.442,4.461-15.903,0l-43.378-46.287
		c-4.008,2.78-8.598,4.848-13.446,6.077c-38.723,10.02-45.188,18.489-45.899,19.394c-1.745,3.491-1.552,17.455,0.323,32.388h220.638
		c1.875-14.933,2.069-28.897,0.259-32.517c-0.517-0.776-7.046-9.18-45.123-19.135C194.039,317.737,189.32,315.475,185.248,312.566z"
		/>
	<path style="fill:#FFC10D;" d="M170.896,296.016c-0.646-1.164-1.164-2.327-1.681-3.556c-10.731,7.434-22.885,11.636-35.556,11.636
		c-12.412,0-24.372-4.202-34.974-11.378c-0.517,1.228-1.164,2.457-1.745,3.685l36.784,39.24L170.896,296.016z"/>
</g>
<g>
	<path style="fill:#FFFFFF;" d="M275.688,181.139l26.828-31.095c-8.339,4.719-17.39,7.434-26.828,7.434
		c-10.15,0-19.911-3.168-28.768-8.663L275.688,181.139z"/>
	<path style="fill:#FFFFFF;" d="M210.848,207.386c0,1.552-0.129,3.038-0.259,4.461c0,0.065,0.065,0.065,0.065,0.129h158.901
		c1.422-11.766,1.552-22.949,0.259-25.988c-1.616-2.392-11.766-8.857-38.012-15.774c-4.073-1.099-7.887-2.844-11.378-5.107
		l-36.848,39.305c-4.331,4.396-11.378,4.655-15.903,0l-36.655-39.111c-3.297,2.069-7.046,3.814-10.99,4.848
		c-5.43,1.422-10.408,2.844-14.933,4.331C208.844,184.501,210.848,195.491,210.848,207.386z"/>
</g>
<path style="fill:#56ACE0;" d="M133.66,282.376c27.345,0,52.364-31.806,55.079-68.461c-25.406-4.719-41.697-17.002-50.941-26.828
	c-10.99,13.511-31.16,33.293-57.729,37.624C86.338,256.517,109.029,282.376,133.66,282.376z"/>
<path style="fill:#FFFFFF;" d="M78.452,202.667c29.22-6.077,49.519-39.24,49.778-39.628c2.004-3.426,5.689-5.43,9.762-5.301
	c3.943,0.129,7.564,2.392,9.374,5.947c0.453,0.84,11.313,20.234,39.952,27.604c-5.818-26.634-26.182-44.218-53.657-44.218
	C102.5,147.135,80.391,169.762,78.452,202.667z"/>
<path style="fill:#FFC10D;" d="M275.688,135.693c22.562,0,43.249-26.117,45.964-56.436c-20.558-4.073-34.263-13.899-42.343-22.174
	c-9.568,11.507-26.376,27.345-48.226,31.547C236.771,114.747,255.389,135.693,275.688,135.693z"/>
<path style="fill:#56ACE0;" d="M229.53,66.586c23.273-6.077,39.952-32.905,40.21-33.228c2.004-3.426,5.818-5.43,9.762-5.301
	c3.943,0.129,7.564,2.392,9.374,5.947c0.388,0.711,8.857,15.903,31.224,22.497c-5.56-21.01-22.238-34.715-44.347-34.715
	C250.153,21.786,231.858,39.952,229.53,66.586z"/>
<g>
	<path style="fill:#194F82;" d="M359.534,263.564c-6.012,0-10.925,4.848-10.925,10.925v74.085h-49.196
		c-6.012,0-10.925,4.848-10.925,10.925c0,6.012,4.849,10.925,10.925,10.925h60.121c6.012,0,10.925-4.849,10.925-10.925v-85.01
		C370.395,268.412,365.547,263.564,359.534,263.564z"/>
	<path style="fill:#194F82;" d="M33.07,124.768c6.012,0,10.925-4.848,10.925-10.925V43.96h89.665
		c6.012,0,10.925-4.848,10.925-10.925s-4.848-10.925-10.925-10.925H33.07c-6.012,0-10.925,4.848-10.925,10.925v80.808
		C22.209,119.919,27.058,124.768,33.07,124.768z"/>
	<path style="fill:#194F82;" d="M388.108,174.222c-4.073-6.077-13.77-15.321-50.747-25.018c-7.822-2.004-13.188-9.244-13.705-17.778
		c12.283-15.515,20.105-36.655,20.105-59.022C343.761,30.448,315.122,0,275.623,0s-68.137,30.448-68.137,72.404
		c0,22.82,8.016,44.154,20.622,59.733c-0.711,8.21-6.012,15.063-13.511,17.002c-7.434,1.939-14.093,3.943-20.04,6.012
		c-13.77-18.554-35.297-29.931-60.897-29.931c-44.735,0-77.188,34.521-77.188,82.036c0,26.182,9.374,50.747,23.984,68.59
		c-0.646,10.537-7.37,19.394-17.002,21.915c-47.903,12.477-55.919,24.566-58.57,28.509c-8.275,12.347-3.943,44.154-1.681,57.277
		c0.905,5.172,5.43,9.051,10.731,9.051H253.32c5.301,0,9.826-3.814,10.731-9.051c2.263-13.059,6.594-44.865-1.681-57.277
		c-2.651-3.943-10.667-15.903-57.794-28.25c-9.891-2.651-16.873-11.895-17.131-22.691c9.18-11.507,16.226-25.729,20.04-41.438
		h171.442c5.301,0,9.826-3.814,10.731-9.051C392.246,210.554,395.284,184.954,388.108,174.222z M133.66,147.135
		c27.41,0,47.774,17.519,53.657,44.218c-28.638-7.37-39.499-26.764-39.952-27.604c-1.745-3.556-5.43-5.818-9.374-5.947
		c-4.008-0.065-7.628,1.939-9.762,5.301c-0.259,0.388-20.558,33.552-49.778,39.628C80.391,169.762,102.5,147.135,133.66,147.135z
		 M199.082,319.03c38.077,9.956,44.606,18.36,45.123,19.135c1.875,3.62,1.616,17.648-0.259,32.517H23.373
		c-1.875-14.869-2.069-28.897-0.323-32.388c0.646-0.905,7.176-9.374,45.899-19.394c4.848-1.228,9.438-3.426,13.446-6.077
		l43.378,46.287c4.396,4.461,11.119,4.784,15.903,0l43.572-46.545C189.32,315.475,194.039,317.737,199.082,319.03z M96.876,296.469
		c0.646-1.228,1.228-2.392,1.745-3.685c10.667,7.176,22.562,11.378,34.974,11.378c12.606,0,24.76-4.331,35.556-11.636
		c0.453,1.228,1.099,2.392,1.681,3.556l-37.236,39.693L96.876,296.469z M133.66,282.376c-24.63,0-47.321-25.794-53.657-57.665
		c26.57-4.396,46.804-24.178,57.729-37.624c9.18,9.891,25.471,22.174,50.941,26.893C186.023,250.44,161.005,282.376,133.66,282.376z
		 M275.688,135.693c-20.17,0-38.853-20.945-44.541-47.063c21.85-4.202,38.659-20.04,48.226-31.547
		c8.145,8.275,21.721,18.101,42.343,22.174C318.872,109.576,298.25,135.693,275.688,135.693z M302.387,150.044l-26.828,31.095
		l-28.768-32.323c8.857,5.495,18.618,8.663,28.768,8.663C284.997,157.479,294.112,154.764,302.387,150.044z M275.688,21.786
		c22.109,0,38.788,13.705,44.347,34.715c-22.303-6.594-30.836-21.786-31.224-22.497c-1.745-3.556-5.43-5.818-9.374-5.947
		c-3.943-0.065-7.758,1.939-9.762,5.301c-0.129,0.323-16.873,27.152-40.21,33.228C231.858,39.952,250.153,21.786,275.688,21.786z
		 M369.619,212.04H210.783c0-0.065-0.065-0.065-0.065-0.129c0.065-1.552,0.259-3.038,0.259-4.461c0-11.83-2.004-22.885-5.689-32.776
		c4.461-1.487,9.503-2.909,14.933-4.331c3.943-1.034,7.628-2.715,10.99-4.848l36.655,39.111c4.59,4.655,11.572,4.396,15.903,0
		l36.848-39.305c3.491,2.263,7.24,4.008,11.378,5.107c26.246,6.853,36.396,13.382,38.012,15.774
		C371.171,189.091,371.042,200.275,369.619,212.04z"/>
</g>
<g>
</g>
<g>
</g>
<g>
</g>
<g>
</g>
<g>
</g>
<g>
</g>
<g>
</g>
<g>
</g>
<g>
</g>
<g>
</g>
<g>
</g>
<g>
</g>
<g>
</g>
<g>
</g>
<g>
</g>
</svg>
